<svg width="398" height="852" viewBox="0 0 398 852" fill="none" xmlns="http://www.w3.org/2000/svg">
<g clip-path="url(#clip0_693_3177)" filter="url(#filter0_d_693_3177)">
<rect width="390" height="844" transform="translate(4)" fill="white"/>
<path d="M208.495 0H394V344L393.786 342.744L379.793 344C379.9 342.967 380.569 334.229 382.353 308.818L381.602 271.403L362.338 158.597L344.072 125.649L318.905 92.7013C300.935 71.4794 287.206 63.7403 262 50L232 37.5L202 30V0H208.495Z" fill="#2A1610"/>
<path d="M195.302 0H4V337L4.22115 335.77L18.6512 337C18.5405 335.988 17.8507 327.428 16.0112 302.534L14.3264 267L18.6512 205.5L36.6512 155.37L55.4884 123.093L84 90.8149C102.532 70.0249 114.196 59.87 141.349 49.237L171.093 37L202 28.5V0H195.302Z" fill="#2A1610"/>
<path d="M317.036 337H390.479H394V349H314.521L311 344.579L317.036 337Z" fill="#2A1610"/>
<path d="M80.9636 337H7.52121H4V349H83.4788L87 344.579L80.9636 337Z" fill="#2A1610"/>
<path d="M314.5 80.665C380.417 159.63 392.298 226.996 391.533 337H335.68C332.559 256.618 320.5 205.5 273.5 135.5C253 113 228.229 101.013 195.584 95.5085C157.667 102.632 139.637 115.614 109.371 144.035C64.1883 198.993 56.46 243.778 59.4795 337H4C11.6941 232.806 14.8132 162.424 73 95.5085C115.498 46.0482 143.555 26.1894 200 26.5002C249.465 26.7725 272.396 47.698 314.5 80.665Z" fill="#2A1610"/>
<path d="M381 777H309.904V757.745H333.391L329.9 445.222H377.682L381 777Z" fill="#2A1610"/>
<path d="M12 774.286L72.3826 778V758.687H52.4348L54.5913 443.729H14.8182L12 774.286Z" fill="#2A1610"/>
<path d="M311 347H394V415H314.701V405.198L319.459 399.685V389.27V380.694V372.117L314.701 366.604L316.815 364.153V356.802L311 352.514V347Z" fill="#2A1610"/>
<path d="M87 347H4V415H83.2994V405.198L78.5414 399.685V389.27V380.694V372.117L83.2994 366.604L81.1847 364.153V356.802L87 352.514V347Z" fill="#2A1610"/>
<path d="M315 415H393.94L395 812H321.358V775.707H378.576L375.927 445.368H317.119L315 432.776V415Z" fill="#2A1610"/>
<path d="M83 415H4.05961L3 812H76.6424V775.707L22.0728 773.5V445.368H80.8808L83 432.776V415Z" fill="#2A1610"/>
<path d="M321.623 809H394V844H120V835.411L313.868 833.479V819.736L318.004 816.945V814.583L321.623 809Z" fill="#2A1610"/>
<path d="M76.6415 809H4V844H279V835.411L84.4245 833.479V819.736L80.2736 816.945V814.583L76.6415 809Z" fill="#2A1610"/>
</g>
<defs>
<filter id="filter0_d_693_3177" x="0" y="0" width="398" height="852" filterUnits="userSpaceOnUse" color-interpolation-filters="sRGB">
<feFlood flood-opacity="0" result="BackgroundImageFix"/>
<feColorMatrix in="SourceAlpha" type="matrix" values="0 0 0 0 0 0 0 0 0 0 0 0 0 0 0 0 0 0 127 0" result="hardAlpha"/>
<feOffset dy="4"/>
<feGaussianBlur stdDeviation="2"/>
<feComposite in2="hardAlpha" operator="out"/>
<feColorMatrix type="matrix" values="0 0 0 0 0 0 0 0 0 0 0 0 0 0 0 0 0 0 0.25 0"/>
<feBlend mode="normal" in2="BackgroundImageFix" result="effect1_dropShadow_693_3177"/>
<feBlend mode="normal" in="SourceGraphic" in2="effect1_dropShadow_693_3177" result="shape"/>
</filter>
<clipPath id="clip0_693_3177">
<rect width="390" height="844" fill="white" transform="translate(4)"/>
</clipPath>
</defs>
</svg>
