<svg width="171" height="65" viewBox="0 0 171 65" fill="none" xmlns="http://www.w3.org/2000/svg">
<path d="M0 65H171V0H40C17.9086 0 0 17.9086 0 40V65Z" fill="#F1B20E"/>
<path d="M72.9121 41V25.499H75.3184L82.9346 36.1768H83.1064V25.499H85.7705V41H83.375L75.7588 30.3223H75.5869V41H72.9121ZM93.9455 41.2363C90.4543 41.2363 88.3381 38.8945 88.3381 35.1562V35.1455C88.3381 31.4502 90.4758 29.0332 93.8166 29.0332C97.1574 29.0332 99.2199 31.375 99.2199 34.9199V35.8008H91.0129C91.0451 37.9062 92.1838 39.1309 93.9992 39.1309C95.4494 39.1309 96.2766 38.4004 96.5344 37.8633L96.5666 37.7881H99.1125L99.0803 37.8848C98.7043 39.3994 97.1359 41.2363 93.9455 41.2363ZM93.8488 31.1279C92.3557 31.1279 91.2385 32.1377 91.0344 34.0068H96.6096C96.427 32.084 95.342 31.1279 93.8488 31.1279ZM100.122 41L103.925 35.1777L100.09 29.2588H103.184L105.515 33.3301H105.698L108.018 29.2588L110.951 29.2588L107.159 35.0596L110.994 41H107.986L105.58 36.918H105.397L103.001 41H100.122ZM117.557 41.0537C114.861 41.0537 113.755 40.1514 113.755 37.8848V31.332H111.928V29.2588H113.755V26.3799H116.472V29.2588H118.954V31.332H116.472V37.251C116.472 38.4219 116.934 38.916 118.051 38.916C118.427 38.916 118.631 38.9053 118.954 38.873V40.9355C118.567 41.0107 118.073 41.0537 117.557 41.0537Z" fill="#E9E5D5"/>
</svg>
