<svg width="171" height="65" viewBox="0 0 171 65" fill="none" xmlns="http://www.w3.org/2000/svg">
<path d="M0 65H171V0H40C17.9086 0 0 17.9086 0 40V65Z" fill="#2E1713"/>
<path d="M58.5156 41V21.2715H60.9082L71.6133 36.625H71.832V21.2715H74.2656V41H71.873L61.168 25.7012H60.9492V41H58.5156ZM84.6037 41.2598C80.3928 41.2598 77.8498 38.3066 77.8498 33.6855V33.6719C77.8498 29.1191 80.4475 26.002 84.4533 26.002C88.4592 26.002 90.8928 28.9824 90.8928 33.3848V34.3145H80.2834C80.3518 37.3633 82.0334 39.1406 84.6584 39.1406C86.6545 39.1406 87.885 38.1973 88.2815 37.3086L88.3361 37.1855H90.715L90.6877 37.2949C90.1818 39.291 88.0764 41.2598 84.6037 41.2598ZM84.4397 28.1211C82.2522 28.1211 80.5842 29.6113 80.3244 32.4141H88.4729C88.2268 29.502 86.6135 28.1211 84.4397 28.1211ZM92.4535 41L97.4985 33.6309L92.3988 26.2617H95.2016L98.7016 31.7441H98.9203L102.379 26.2617H105.045L100.041 33.5352L105.114 41H102.325L98.8383 35.4355H98.6195L95.1195 41H92.4535ZM113.141 41.1094C110.106 41.1094 108.835 39.9883 108.835 37.1719V28.2305H106.51V26.2617H108.835V22.4473H111.296V26.2617H114.522V28.2305H111.296V36.5703C111.296 38.3066 111.897 39.0039 113.428 39.0039C113.852 39.0039 114.085 38.9902 114.522 38.9492V40.9727C114.057 41.0547 113.606 41.1094 113.141 41.1094Z" fill="white"/>
</svg>
