<svg width="333" height="438" viewBox="0 0 333 438" fill="none" xmlns="http://www.w3.org/2000/svg">
<g filter="url(#filter0_d_178_2020)">
<rect x="24.25" y="16.25" width="283.926" height="388.532" rx="12.75" fill="#FAFAFA" stroke="#1B1511" stroke-width="0.5"/>
<rect x="62.5388" y="16.5" width="29.5549" height="71.7498" fill="#F1B20D" stroke="#1B1511"/>
<mask id="path-3-outside-1_178_2020" maskUnits="userSpaceOnUse" x="71" y="43.0322" width="14" height="24" fill="black">
<rect fill="white" x="71" y="43.0322" width="14" height="24"/>
<path d="M71.686 66.0322V63.7202H76.65V47.7402H72.706V45.9382C73.7033 45.7569 74.5647 45.5416 75.29 45.2922C76.038 45.0202 76.7067 44.7029 77.296 44.3402H79.438V63.7202H83.926V66.0322H71.686Z"/>
</mask>
<path d="M71.686 66.0322V63.7202H76.65V47.7402H72.706V45.9382C73.7033 45.7569 74.5647 45.5416 75.29 45.2922C76.038 45.0202 76.7067 44.7029 77.296 44.3402H79.438V63.7202H83.926V66.0322H71.686Z" fill="#2A1610"/>
<path d="M71.686 66.0322H71.186V66.5322H71.686V66.0322ZM71.686 63.7202V63.2202H71.186V63.7202H71.686ZM76.65 63.7202V64.2202H77.15V63.7202H76.65ZM76.65 47.7402H77.15V47.2402H76.65V47.7402ZM72.706 47.7402H72.206V48.2402H72.706V47.7402ZM72.706 45.9382L72.6166 45.4463L72.206 45.5209V45.9382H72.706ZM75.29 45.2922L75.4526 45.7651L75.4609 45.7621L75.29 45.2922ZM77.296 44.3402V43.8402H77.1545L77.034 43.9144L77.296 44.3402ZM79.438 44.3402H79.938V43.8402H79.438V44.3402ZM79.438 63.7202H78.938V64.2202H79.438V63.7202ZM83.926 63.7202H84.426V63.2202H83.926V63.7202ZM83.926 66.0322V66.5322H84.426V66.0322H83.926ZM72.186 66.0322V63.7202H71.186V66.0322H72.186ZM71.686 64.2202H76.65V63.2202H71.686V64.2202ZM77.15 63.7202V47.7402H76.15V63.7202H77.15ZM76.65 47.2402H72.706V48.2402H76.65V47.2402ZM73.206 47.7402V45.9382H72.206V47.7402H73.206ZM72.7954 46.4302C73.8102 46.2457 74.6972 46.0247 75.4525 45.7651L75.1275 44.8194C74.4322 45.0584 73.5965 45.2681 72.6166 45.4463L72.7954 46.4302ZM75.4609 45.7621C76.236 45.4802 76.936 45.1489 77.558 44.7661L77.034 43.9144C76.4774 44.2569 75.84 44.5602 75.1191 44.8223L75.4609 45.7621ZM77.296 44.8402H79.438V43.8402H77.296V44.8402ZM78.938 44.3402V63.7202H79.938V44.3402H78.938ZM79.438 64.2202H83.926V63.2202H79.438V64.2202ZM83.426 63.7202V66.0322H84.426V63.7202H83.426ZM83.926 65.5322H71.686V66.5322H83.926V65.5322Z" fill="#1B1511" mask="url(#path-3-outside-1_178_2020)"/>
</g>
<defs>
<filter id="filter0_d_178_2020" x="0" y="0" width="332.426" height="437.032" filterUnits="userSpaceOnUse" color-interpolation-filters="sRGB">
<feFlood flood-opacity="0" result="BackgroundImageFix"/>
<feColorMatrix in="SourceAlpha" type="matrix" values="0 0 0 0 0 0 0 0 0 0 0 0 0 0 0 0 0 0 127 0" result="hardAlpha"/>
<feOffset dy="8"/>
<feGaussianBlur stdDeviation="12"/>
<feComposite in2="hardAlpha" operator="out"/>
<feColorMatrix type="matrix" values="0 0 0 0 0 0 0 0 0 0 0 0 0 0 0 0 0 0 0.15 0"/>
<feBlend mode="normal" in2="BackgroundImageFix" result="effect1_dropShadow_178_2020"/>
<feBlend mode="normal" in="SourceGraphic" in2="effect1_dropShadow_178_2020" result="shape"/>
</filter>
</defs>
</svg>
