<svg width="171" height="65" viewBox="0 0 171 65" fill="none" xmlns="http://www.w3.org/2000/svg">
<path d="M0 65H171V0H40C17.9086 0 0 17.9086 0 40V65Z" fill="#F1B20E"/>
<path d="M77.6914 43.4648C72.2363 43.4648 68.75 39.4453 68.75 33.1426V33.1152C68.75 26.8945 72.291 22.8066 77.6914 22.8066C82.0664 22.8066 85.1426 25.2676 85.9219 29.0137L85.9492 29.1504L83.4609 29.1504L83.4199 29.0137C82.6133 26.4707 80.6309 25.0762 77.6914 25.0762C73.7812 25.0762 71.2656 28.2207 71.2656 33.1152V33.1426C71.2656 38.1055 73.7402 41.1953 77.7051 41.1953C81.2324 41.1953 83.6113 38.9395 83.6113 35.6035V35.125H78.0742V32.9648H86.0723V35.3711C86.0723 40.2383 82.7363 43.4648 77.6914 43.4648ZM95.7815 43.2598C91.5842 43.2598 88.9865 40.3613 88.9865 35.6445V35.6172C88.9865 30.8867 91.5842 28.002 95.7815 28.002C99.9787 28.002 102.576 30.8867 102.576 35.6172V35.6445C102.576 40.3613 99.9787 43.2598 95.7815 43.2598ZM95.7815 41.1543C98.5705 41.1543 100.143 39.1172 100.143 35.6445V35.6172C100.143 32.1309 98.5705 30.1074 95.7815 30.1074C92.9924 30.1074 91.4201 32.1309 91.4201 35.6172V35.6445C91.4201 39.1172 92.9924 41.1543 95.7815 41.1543Z" fill="#2E1713"/>
</svg>
