<svg width="171" height="65" viewBox="0 0 171 65" fill="none" xmlns="http://www.w3.org/2000/svg">
<path d="M0 65H171V0H40C17.9086 0 0 17.9086 0 40V65Z" fill="#F1B20E"/>
<path d="M79.54 41.3867C75.0498 41.3867 72.2568 38.2607 72.2568 33.2549V33.2334C72.2568 28.2812 75.082 25.1123 79.4971 25.1123C83.0742 25.1123 85.6523 27.1641 86.1787 30.1934L86.1895 30.3008H83.4395L83.4072 30.1934C82.9023 28.4961 81.4844 27.5078 79.4971 27.5078C76.79 27.5078 75.082 29.71 75.082 33.2119V33.2334C75.082 36.7891 76.8223 38.9912 79.583 38.9912C81.9463 38.9912 83.5576 37.5195 83.5898 35.3174L83.6006 34.9951H79.8838V32.8789H86.3184V34.8125C86.3184 38.8193 83.6758 41.3867 79.54 41.3867ZM93.924 41.2363C90.4006 41.2363 88.2736 38.9375 88.2736 35.1348V35.1133C88.2736 31.3428 90.4328 29.0332 93.924 29.0332C97.426 29.0332 99.5744 31.332 99.5744 35.1133V35.1348C99.5744 38.9375 97.4367 41.2363 93.924 41.2363ZM93.924 39.0664C95.7824 39.0664 96.8352 37.6162 96.8352 35.1455V35.124C96.8352 32.6533 95.7717 31.1924 93.924 31.1924C92.0656 31.1924 91.0022 32.6533 91.0022 35.124V35.1455C91.0022 37.6162 92.0656 39.0664 93.924 39.0664Z" fill="#E9E5D5"/>
</svg>
