<svg width="342" height="718" viewBox="0 0 342 718" fill="none" xmlns="http://www.w3.org/2000/svg">
<path d="M0 25C0 17.8203 5.8203 12 13 12H329C336.18 12 342 17.8203 342 25V718H40C17.9086 718 0 700.091 0 678V25Z" fill="#FAF6E6"/>
<path d="M47.4219 111.4C43.4219 111.4 40.2885 109.867 38.0219 106.8C35.8885 103.6 34.8219 99.1333 34.8219 93.4C34.8219 85.4 36.6219 78.4667 40.2219 72.6C43.8219 66.7333 49.0885 61.8 56.0219 57.8L60.8219 65.6C55.7552 68.9333 51.9552 72.5333 49.4219 76.4C46.8885 80.1333 45.6219 84.8 45.6219 90.4C46.0219 90.2667 46.6219 90.2 47.4219 90.2C50.0885 90.2 52.4885 91.0667 54.6219 92.8C56.8885 94.5333 58.0219 97.0667 58.0219 100.4C58.0219 103.733 57.0219 106.4 55.0219 108.4C53.0219 110.4 50.4885 111.4 47.4219 111.4ZM82.8219 111.4C78.8219 111.4 75.6885 109.867 73.4219 106.8C71.2885 103.6 70.2219 99.1333 70.2219 93.4C70.2219 85.4 72.0219 78.4667 75.6219 72.6C79.2219 66.7333 84.4885 61.8 91.4219 57.8L96.2219 65.6C91.1552 68.9333 87.3552 72.5333 84.8219 76.4C82.2885 80.1333 81.0219 84.8 81.0219 90.4C81.4219 90.2667 82.0219 90.2 82.8219 90.2C85.4885 90.2 87.8885 91.0667 90.0219 92.8C92.2885 94.5333 93.4219 97.0667 93.4219 100.4C93.4219 103.733 92.4219 106.4 90.4219 108.4C88.4219 110.4 85.8885 111.4 82.8219 111.4Z" fill="#E04B1E"/>
<path d="M254.422 594.4C250.422 594.4 247.289 592.867 245.022 589.8C242.889 586.6 241.822 582.133 241.822 576.4C241.822 568.4 243.622 561.467 247.222 555.6C250.822 549.733 256.089 544.8 263.022 540.8L267.822 548.6C262.755 551.933 258.955 555.533 256.422 559.4C253.889 563.133 252.622 567.8 252.622 573.4C253.022 573.267 253.622 573.2 254.422 573.2C257.089 573.2 259.489 574.067 261.622 575.8C263.889 577.533 265.022 580.067 265.022 583.4C265.022 586.733 264.022 589.4 262.022 591.4C260.022 593.4 257.489 594.4 254.422 594.4ZM289.822 594.4C285.822 594.4 282.689 592.867 280.422 589.8C278.289 586.6 277.222 582.133 277.222 576.4C277.222 568.4 279.022 561.467 282.622 555.6C286.222 549.733 291.489 544.8 298.422 540.8L303.222 548.6C298.155 551.933 294.355 555.533 291.822 559.4C289.289 563.133 288.022 567.8 288.022 573.4C288.422 573.267 289.022 573.2 289.822 573.2C292.489 573.2 294.889 574.067 297.022 575.8C299.289 577.533 300.422 580.067 300.422 583.4C300.422 586.733 299.422 589.4 297.422 591.4C295.422 593.4 292.889 594.4 289.822 594.4Z" fill="#E04B1E"/>
<path d="M61.0264 364.819C56.5329 361.968 54.5427 360.077 53.4526 355.328C57.9459 352.037 60.6055 351.877 66.0753 352.74C67.7584 352.74 73.236 358.06 74.4906 361.799C69.8318 365.729 66.865 366.304 61.0264 364.819Z" stroke="#F1B20D" stroke-opacity="0.15" stroke-width="2"/>
<path d="M64.3946 346.929C59.9083 349.792 57.3727 350.781 52.738 349.674C51.8562 344.086 52.8969 341.571 56.0791 336.929C56.8262 335.383 63.9073 332.712 67.7321 333.219C69.0992 339.244 68.2849 342.225 64.3946 346.929Z" stroke="#F1B20D" stroke-opacity="0.15" stroke-width="2"/>
<path d="M36.1485 351.386C41.4258 351.662 44.0584 352.334 47.2472 355.956C44.8587 361.06 42.6041 362.516 37.4064 364.464C35.932 365.296 28.6311 363.344 25.7734 360.688C28.0061 354.942 30.3347 352.971 36.1485 351.386Z" stroke="#F1B20D" stroke-opacity="0.15" stroke-width="2"/>
<path d="M44.2323 369.214C45.2149 363.891 46.2213 361.308 50.1537 358.56C54.7624 361.679 55.8627 364.166 57.0405 369.71C57.6446 371.321 54.7676 378.472 51.8141 381.015C46.5637 377.967 44.9753 375.335 44.2323 369.214Z" stroke="#F1B20D" stroke-opacity="0.15" stroke-width="2"/>
<path d="M47.1683 338.007C49.037 343.074 49.4918 345.817 47.5336 350.263C42.015 350.066 39.811 348.531 35.9866 344.43C34.6521 343.379 33.4703 335.739 34.6976 331.99C40.7275 331.784 43.4217 333.181 47.1683 338.007Z" stroke="#F1B20D" stroke-opacity="0.15" stroke-width="2"/>
<path d="M324.026 364.819C319.533 361.968 317.543 360.077 316.453 355.328C320.946 352.037 323.605 351.877 329.075 352.74C330.758 352.74 336.236 358.06 337.491 361.799C332.832 365.729 329.865 366.304 324.026 364.819Z" stroke="#F1B20D" stroke-opacity="0.15" stroke-width="2"/>
<path d="M327.395 346.929C322.908 349.792 320.373 350.781 315.738 349.674C314.856 344.086 315.897 341.571 319.079 336.929C319.826 335.383 326.907 332.712 330.732 333.219C332.099 339.244 331.285 342.225 327.395 346.929Z" stroke="#F1B20D" stroke-opacity="0.15" stroke-width="2"/>
<path d="M299.148 351.386C304.426 351.662 307.058 352.334 310.247 355.956C307.859 361.06 305.604 362.516 300.406 364.464C298.932 365.296 291.631 363.344 288.773 360.688C291.006 354.942 293.335 352.971 299.148 351.386Z" stroke="#F1B20D" stroke-opacity="0.15" stroke-width="2"/>
<path d="M307.232 369.214C308.215 363.891 309.221 361.308 313.154 358.56C317.762 361.679 318.863 364.166 320.041 369.71C320.645 371.321 317.768 378.472 314.814 381.015C309.564 377.967 307.975 375.335 307.232 369.214Z" stroke="#F1B20D" stroke-opacity="0.15" stroke-width="2"/>
<path d="M310.168 338.007C312.037 343.074 312.492 345.817 310.534 350.263C305.015 350.066 302.811 348.531 298.987 344.43C297.652 343.379 296.47 335.739 297.698 331.99C303.728 331.784 306.422 333.181 310.168 338.007Z" stroke="#F1B20D" stroke-opacity="0.15" stroke-width="2"/>
<path d="M115.464 149.819C119.958 146.968 121.948 145.077 123.038 140.328C118.545 137.037 115.885 136.877 110.415 137.74C108.732 137.74 103.255 143.06 102 146.799C106.659 150.729 109.626 151.304 115.464 149.819Z" stroke="#F1B20D" stroke-opacity="0.15" stroke-width="2"/>
<path d="M112.096 131.929C116.582 134.792 119.118 135.781 123.753 134.674C124.634 129.086 123.594 126.571 120.412 121.929C119.665 120.383 112.583 117.712 108.759 118.219C107.391 124.244 108.206 127.225 112.096 131.929Z" stroke="#F1B20D" stroke-opacity="0.15" stroke-width="2"/>
<path d="M140.342 136.386C135.065 136.662 132.432 137.334 129.244 140.956C131.632 146.06 133.887 147.516 139.084 149.464C140.559 150.296 147.86 148.344 150.717 145.688C148.485 139.942 146.156 137.971 140.342 136.386Z" stroke="#F1B20D" stroke-opacity="0.15" stroke-width="2"/>
<path d="M132.258 154.214C131.276 148.891 130.269 146.308 126.337 143.56C121.728 146.679 120.628 149.166 119.45 154.71C118.846 156.321 121.723 163.472 124.677 166.015C129.927 162.967 131.515 160.335 132.258 154.214Z" stroke="#F1B20D" stroke-opacity="0.15" stroke-width="2"/>
<path d="M129.322 123.007C127.454 128.074 126.999 130.817 128.957 135.263C134.476 135.066 136.68 133.531 140.504 129.43C141.839 128.379 143.02 120.739 141.793 116.99C135.763 116.784 133.069 118.181 129.322 123.007Z" stroke="#F1B20D" stroke-opacity="0.15" stroke-width="2"/>
<path d="M110.464 471.819C114.958 468.968 116.948 467.077 118.038 462.328C113.545 459.037 110.885 458.877 105.415 459.74C103.732 459.74 98.2547 465.06 97.0001 468.799C101.659 472.729 104.626 473.304 110.464 471.819Z" stroke="#F1B20D" stroke-opacity="0.15" stroke-width="2"/>
<path d="M107.096 453.929C111.582 456.792 114.118 457.781 118.753 456.674C119.634 451.086 118.594 448.571 115.412 443.929C114.665 442.383 107.583 439.712 103.759 440.219C102.391 446.244 103.206 449.225 107.096 453.929Z" stroke="#F1B20D" stroke-opacity="0.15" stroke-width="2"/>
<path d="M135.342 458.386C130.065 458.662 127.432 459.334 124.244 462.956C126.632 468.06 128.887 469.516 134.084 471.464C135.559 472.296 142.86 470.344 145.717 467.688C143.485 461.942 141.156 459.971 135.342 458.386Z" stroke="#F1B20D" stroke-opacity="0.15" stroke-width="2"/>
<path d="M127.258 476.214C126.276 470.891 125.269 468.308 121.337 465.56C116.728 468.679 115.628 471.166 114.45 476.71C113.846 478.321 116.723 485.472 119.677 488.015C124.927 484.967 126.515 482.335 127.258 476.214Z" stroke="#F1B20D" stroke-opacity="0.15" stroke-width="2"/>
<path d="M124.322 445.007C122.454 450.074 121.999 452.817 123.957 457.263C129.476 457.066 131.68 455.531 135.504 451.43C136.839 450.379 138.02 442.739 136.793 438.99C130.763 438.784 128.069 440.181 124.322 445.007Z" stroke="#F1B20D" stroke-opacity="0.15" stroke-width="2"/>
<path d="M234.026 212.681C229.533 209.83 227.543 207.94 226.453 203.191C230.946 199.9 233.605 199.74 239.075 200.603C240.758 200.603 246.236 205.923 247.491 209.662C242.832 213.592 239.865 214.167 234.026 212.681Z" stroke="#F1B20D" stroke-opacity="0.15" stroke-width="2"/>
<path d="M237.395 194.792C232.908 197.654 230.373 198.644 225.738 197.537C224.856 191.948 225.897 189.434 229.079 184.792C229.826 183.245 236.907 180.574 240.732 181.082C242.099 187.106 241.285 190.087 237.395 194.792Z" stroke="#F1B20D" stroke-opacity="0.15" stroke-width="2"/>
<path d="M209.148 199.249C214.426 199.525 217.058 200.197 220.247 203.819C217.859 208.923 215.604 210.378 210.406 212.327C208.932 213.159 201.631 211.206 198.773 208.551C201.006 202.805 203.335 200.834 209.148 199.249Z" stroke="#F1B20D" stroke-opacity="0.15" stroke-width="2"/>
<path d="M217.232 217.077C218.215 211.754 219.221 209.171 223.154 206.423C227.762 209.541 228.863 212.029 230.041 217.573C230.645 219.184 227.768 226.335 224.814 228.877C219.564 225.83 217.975 223.197 217.232 217.077Z" stroke="#F1B20D" stroke-opacity="0.15" stroke-width="2"/>
<path d="M220.168 185.87C222.037 190.937 222.492 193.679 220.534 198.126C215.015 197.929 212.811 196.394 208.987 192.293C207.652 191.241 206.47 183.601 207.698 179.853C213.728 179.647 216.422 181.044 220.168 185.87Z" stroke="#F1B20D" stroke-opacity="0.15" stroke-width="2"/>
<path d="M229.026 537.819C224.533 534.968 222.543 533.077 221.453 528.328C225.946 525.037 228.605 524.877 234.075 525.74C235.758 525.74 241.236 531.06 242.491 534.799C237.832 538.729 234.865 539.304 229.026 537.819Z" stroke="#F1B20D" stroke-opacity="0.15" stroke-width="2"/>
<path d="M232.395 519.929C227.908 522.792 225.373 523.781 220.738 522.674C219.856 517.086 220.897 514.571 224.079 509.929C224.826 508.383 231.907 505.712 235.732 506.219C237.099 512.244 236.285 515.225 232.395 519.929Z" stroke="#F1B20D" stroke-opacity="0.15" stroke-width="2"/>
<path d="M204.148 524.386C209.426 524.662 212.058 525.334 215.247 528.956C212.859 534.06 210.604 535.516 205.406 537.464C203.932 538.296 196.631 536.344 193.773 533.688C196.006 527.942 198.335 525.971 204.148 524.386Z" stroke="#F1B20D" stroke-opacity="0.15" stroke-width="2"/>
<path d="M212.232 542.214C213.215 536.891 214.221 534.308 218.154 531.56C222.762 534.679 223.863 537.166 225.041 542.71C225.645 544.321 222.768 551.472 219.814 554.015C214.564 550.967 212.975 548.335 212.232 542.214Z" stroke="#F1B20D" stroke-opacity="0.15" stroke-width="2"/>
<path d="M215.168 511.007C217.037 516.074 217.492 518.817 215.534 523.263C210.015 523.066 207.811 521.531 203.987 517.43C202.652 516.379 201.47 508.739 202.698 504.99C208.728 504.784 211.422 506.181 215.168 511.007Z" stroke="#F1B20D" stroke-opacity="0.15" stroke-width="2"/>
<path d="M319.026 236.819C314.533 233.968 312.543 232.077 311.453 227.328C315.946 224.037 318.605 223.877 324.075 224.74C325.758 224.74 331.236 230.06 332.491 233.799C327.832 237.729 324.865 238.304 319.026 236.819Z" stroke="#F1B20D" stroke-opacity="0.15" stroke-width="2"/>
<path d="M322.395 218.929C317.908 221.792 315.373 222.781 310.738 221.674C309.856 216.086 310.897 213.571 314.079 208.929C314.826 207.383 321.907 204.712 325.732 205.219C327.099 211.244 326.285 214.225 322.395 218.929Z" stroke="#F1B20D" stroke-opacity="0.15" stroke-width="2"/>
<path d="M294.148 223.386C299.426 223.662 302.058 224.334 305.247 227.956C302.859 233.06 300.604 234.516 295.406 236.464C293.932 237.296 286.631 235.344 283.773 232.688C286.006 226.942 288.335 224.971 294.148 223.386Z" stroke="#F1B20D" stroke-opacity="0.15" stroke-width="2"/>
<path d="M302.232 241.214C303.215 235.891 304.221 233.308 308.154 230.56C312.762 233.679 313.863 236.166 315.041 241.71C315.645 243.321 312.768 250.472 309.814 253.015C304.564 249.967 302.975 247.335 302.232 241.214Z" stroke="#F1B20D" stroke-opacity="0.15" stroke-width="2"/>
<path d="M305.168 210.007C307.037 215.074 307.492 217.817 305.534 222.263C300.015 222.066 297.811 220.531 293.987 216.43C292.652 215.379 291.47 207.739 292.698 203.99C298.728 203.784 301.422 205.181 305.168 210.007Z" stroke="#F1B20D" stroke-opacity="0.15" stroke-width="2"/>
<path d="M314.026 519.681C309.533 516.83 307.543 514.94 306.453 510.191C310.946 506.9 313.605 506.74 319.075 507.603C320.758 507.603 326.236 512.923 327.491 516.661C322.832 520.592 319.865 521.167 314.026 519.681Z" stroke="#F1B20D" stroke-opacity="0.15" stroke-width="2"/>
<path d="M317.395 501.792C312.908 504.654 310.373 505.644 305.738 504.537C304.856 498.948 305.897 496.434 309.079 491.792C309.826 490.245 316.907 487.574 320.732 488.082C322.099 494.106 321.285 497.087 317.395 501.792Z" stroke="#F1B20D" stroke-opacity="0.15" stroke-width="2"/>
<path d="M289.148 506.249C294.426 506.525 297.058 507.197 300.247 510.819C297.859 515.923 295.604 517.378 290.406 519.327C288.932 520.159 281.631 518.206 278.773 515.551C281.006 509.805 283.335 507.834 289.148 506.249Z" stroke="#F1B20D" stroke-opacity="0.15" stroke-width="2"/>
<path d="M297.232 524.077C298.215 518.754 299.221 516.171 303.154 513.423C307.762 516.541 308.863 519.029 310.041 524.573C310.645 526.184 307.768 533.335 304.814 535.877C299.564 532.83 297.975 530.197 297.232 524.077Z" stroke="#F1B20D" stroke-opacity="0.15" stroke-width="2"/>
<path d="M300.168 492.87C302.037 497.937 302.492 500.679 300.534 505.126C295.015 504.929 292.811 503.394 288.987 499.293C287.652 498.241 286.47 490.601 287.698 486.853C293.728 486.647 296.422 488.044 300.168 492.87Z" stroke="#F1B20D" stroke-opacity="0.15" stroke-width="2"/>
<path d="M61.0264 232.819C56.5329 229.968 54.5427 228.077 53.4526 223.328C57.9459 220.037 60.6055 219.877 66.0753 220.74C67.7584 220.74 73.236 226.06 74.4906 229.799C69.8318 233.729 66.865 234.304 61.0264 232.819Z" stroke="#F1B20D" stroke-opacity="0.15" stroke-width="2"/>
<path d="M64.3946 214.929C59.9083 217.792 57.3727 218.781 52.738 217.674C51.8562 212.086 52.8969 209.571 56.0791 204.929C56.8262 203.383 63.9073 200.712 67.7321 201.219C69.0992 207.244 68.2849 210.225 64.3946 214.929Z" stroke="#F1B20D" stroke-opacity="0.15" stroke-width="2"/>
<path d="M36.1485 219.386C41.4258 219.662 44.0584 220.334 47.2472 223.956C44.8587 229.06 42.6041 230.516 37.4064 232.464C35.932 233.296 28.6311 231.344 25.7734 228.688C28.0061 222.942 30.3347 220.971 36.1485 219.386Z" stroke="#F1B20D" stroke-opacity="0.15" stroke-width="2"/>
<path d="M44.2323 237.214C45.2149 231.891 46.2213 229.308 50.1537 226.56C54.7624 229.679 55.8627 232.166 57.0405 237.71C57.6446 239.321 54.7676 246.472 51.8141 249.015C46.5637 245.967 44.9753 243.335 44.2323 237.214Z" stroke="#F1B20D" stroke-opacity="0.15" stroke-width="2"/>
<path d="M47.1683 206.007C49.037 211.074 49.4918 213.817 47.5336 218.263C42.015 218.066 39.811 216.531 35.9866 212.43C34.6521 211.379 33.4703 203.739 34.6976 199.99C40.7275 199.784 43.4217 201.181 47.1683 206.007Z" stroke="#F1B20D" stroke-opacity="0.15" stroke-width="2"/>
<path d="M56.0264 525.681C51.5329 522.83 49.5427 520.94 48.4526 516.191C52.9459 512.9 55.6055 512.74 61.0753 513.603C62.7584 513.603 68.236 518.923 69.4906 522.661C64.8318 526.592 61.865 527.167 56.0264 525.681Z" stroke="#F1B20D" stroke-opacity="0.15" stroke-width="2"/>
<path d="M59.3946 507.792C54.9083 510.654 52.3727 511.644 47.738 510.537C46.8562 504.948 47.8969 502.434 51.0791 497.792C51.8262 496.245 58.9073 493.574 62.7321 494.082C64.0992 500.106 63.2849 503.087 59.3946 507.792Z" stroke="#F1B20D" stroke-opacity="0.15" stroke-width="2"/>
<path d="M31.1485 512.249C36.4258 512.525 39.0584 513.197 42.2472 516.819C39.8587 521.923 37.6041 523.378 32.4064 525.327C30.932 526.159 23.6311 524.206 20.7734 521.551C23.0061 515.805 25.3347 513.834 31.1485 512.249Z" stroke="#F1B20D" stroke-opacity="0.15" stroke-width="2"/>
<path d="M39.2323 530.077C40.2149 524.754 41.2213 522.171 45.1537 519.423C49.7624 522.541 50.8627 525.029 52.0405 530.573C52.6446 532.184 49.7676 539.335 46.8141 541.877C41.5637 538.83 39.9753 536.197 39.2323 530.077Z" stroke="#F1B20D" stroke-opacity="0.15" stroke-width="2"/>
<path d="M42.1683 498.87C44.037 503.937 44.4918 506.679 42.5336 511.126C37.015 510.929 34.811 509.394 30.9866 505.293C29.6521 504.241 28.4703 496.601 29.6976 492.853C35.7275 492.647 38.4217 494.044 42.1683 498.87Z" stroke="#F1B20D" stroke-opacity="0.15" stroke-width="2"/>
<path d="M129.144 230.231H133.716L133.089 210.801H133.716L135.237 208.883L134.094 205.073L136.764 204.705L141.336 208.134L142.479 212.325V216.516H146.288V215.373L146.666 212.325L145.146 208.134L141.336 203.943L137.526 203.181L134.856 202.787L135.999 199.358L144.384 199.371L146.666 201.657C146.666 201.657 148.343 204.336 150.097 204.705C150.824 204.858 152 204.705 152 204.705C152 204.705 151.386 203.844 150.995 203.31C150.804 202.831 149.028 199.731 147.431 198.228C145.531 197.18 144.443 196.908 142.479 197.085C140.991 197.085 138.666 197.453 137.142 197.834C135.618 198.215 136.764 197.085 136.764 197.085L137.526 195.942C138.716 194.752 138.669 194.038 140.574 192.895C142.479 191.752 144.767 192.371 147.431 192.895L145.146 190.99C141.879 189.873 139.968 190.424 136.708 191.364L136.686 191.371C134.541 192.645 132.979 194.554 132.598 195.545L132.585 195.167L131.04 195.942C130.847 195.194 125.661 191.734 123.429 190.99L116.572 192.895C123.931 191.978 126.292 192.737 128.76 197.085L128.859 199.448L126.858 198.228L124.191 197.085L116.572 198.228L112 203.181C112 203.181 116.194 206.229 115.429 204.705C114.664 203.181 118.096 200.514 121.144 199.371C124.191 198.228 127.998 200.501 127.998 200.501V202.025L124.191 203.562L121.144 205.073L118.902 211.041L122.287 216.516V213.849V210.801L123.429 208.134L128.76 205.073L127.998 208.502L129.337 210.801L129.144 230.231Z" fill="#F1B20D" fill-opacity="0.15"/>
<path d="M123.144 559.863H127.716L127.089 540.433H127.716L129.237 538.515L128.094 534.705L130.764 534.337L135.336 537.766L136.479 541.956V546.147H140.288V545.004L140.666 541.956L139.146 537.766L135.336 533.575L131.526 532.813L128.856 532.419L129.999 528.99L138.384 529.003L140.666 531.289C140.666 531.289 142.343 533.968 144.097 534.337C144.824 534.49 146 534.337 146 534.337C146 534.337 145.386 533.476 144.995 532.942C144.804 532.463 143.028 529.363 141.431 527.86C139.531 526.811 138.443 526.54 136.479 526.717C134.991 526.717 132.666 527.085 131.142 527.466C129.618 527.847 130.764 526.717 130.764 526.717L131.526 525.574C132.716 524.384 132.669 523.669 134.574 522.526C136.479 521.383 138.767 522.003 141.431 522.526L139.146 520.621C135.879 519.505 133.968 520.056 130.708 520.996L130.686 521.002C128.541 522.276 126.979 524.186 126.598 525.176L126.585 524.799L125.04 525.574C124.847 524.825 119.661 521.365 117.429 520.621L110.572 522.526C117.931 521.61 120.292 522.369 122.76 526.717L122.859 529.08L120.858 527.86L118.191 526.717L110.572 527.86L106 532.813C106 532.813 110.194 535.861 109.429 534.337C108.664 532.813 112.096 530.146 115.144 529.003C118.191 527.86 121.998 530.133 121.998 530.133V531.657L118.191 533.194L115.144 534.705L112.902 540.673L116.287 546.147V543.48V540.433L117.429 537.766L122.76 534.705L121.998 538.134L123.337 540.433L123.144 559.863Z" fill="#F1B20D" fill-opacity="0.15"/>
<path d="M51.8558 320.863H47.284L47.9105 301.433H47.284L45.7633 299.515L46.9062 295.705L44.2361 295.337L39.6643 298.766L38.5213 302.956V307.147H34.7115V306.004L34.3338 302.956L35.8545 298.766L39.6643 294.575L43.4741 293.813L46.1442 293.419L45.0013 289.99L36.6164 290.003L34.3338 292.289C34.3338 292.289 32.657 294.968 30.9033 295.337C30.176 295.49 29 295.337 29 295.337C29 295.337 29.6142 294.476 30.0051 293.942C30.1961 293.463 31.9717 290.363 33.5686 288.86C35.4687 287.811 36.5567 287.54 38.5213 287.717C40.0092 287.717 42.3344 288.085 43.8583 288.466C45.3823 288.847 44.2361 287.717 44.2361 287.717L43.4741 286.574C42.2839 285.384 42.3312 284.669 40.4263 283.526C38.5213 282.383 36.2334 283.003 33.5686 283.526L35.8545 281.621C39.1206 280.505 41.0325 281.056 44.292 281.996L44.314 282.002C46.4594 283.276 48.021 285.186 48.4025 286.176L48.4146 285.799L49.9604 286.574C50.153 285.825 55.3388 282.365 57.5705 281.621L64.4282 283.526C57.0689 282.61 54.7085 283.369 52.2399 287.717L52.1405 290.08L54.1417 288.86L56.8085 287.717L64.4282 288.86L69 293.813C69 293.813 64.806 296.861 65.5712 295.337C66.3363 293.813 62.9043 291.146 59.8564 290.003C56.8085 288.86 53.0019 291.133 53.0019 291.133V292.657L56.8085 294.194L59.8564 295.705L62.0977 301.673L58.7135 307.147V304.48V301.433L57.5705 298.766L52.2399 295.705L53.0019 299.134L51.6632 301.433L51.8558 320.863Z" fill="#F1B20D" fill-opacity="0.15"/>
<path d="M314.856 320.863H310.284L310.911 301.433H310.284L308.763 299.515L309.906 295.705L307.236 295.337L302.664 298.766L301.521 302.956V307.147H297.712V306.004L297.334 302.956L298.854 298.766L302.664 294.575L306.474 293.813L309.144 293.419L308.001 289.99L299.616 290.003L297.334 292.289C297.334 292.289 295.657 294.968 293.903 295.337C293.176 295.49 292 295.337 292 295.337C292 295.337 292.614 294.476 293.005 293.942C293.196 293.463 294.972 290.363 296.569 288.86C298.469 287.811 299.557 287.54 301.521 287.717C303.009 287.717 305.334 288.085 306.858 288.466C308.382 288.847 307.236 287.717 307.236 287.717L306.474 286.574C305.284 285.384 305.331 284.669 303.426 283.526C301.521 282.383 299.233 283.003 296.569 283.526L298.854 281.621C302.121 280.505 304.032 281.056 307.292 281.996L307.314 282.002C309.459 283.276 311.021 285.186 311.402 286.176L311.415 285.799L312.96 286.574C313.153 285.825 318.339 282.365 320.571 281.621L327.428 283.526C320.069 282.61 317.708 283.369 315.24 287.717L315.141 290.08L317.142 288.86L319.809 287.717L327.428 288.86L332 293.813C332 293.813 327.806 296.861 328.571 295.337C329.336 293.813 325.904 291.146 322.856 290.003C319.809 288.86 316.002 291.133 316.002 291.133V292.657L319.809 294.194L322.856 295.705L325.098 301.673L321.713 307.147V304.48V301.433L320.571 298.766L315.24 295.705L316.002 299.134L314.663 301.433L314.856 320.863Z" fill="#F1B20D" fill-opacity="0.15"/>
<path d="M224.856 145.863H220.284L220.911 126.433H220.284L218.763 124.515L219.906 120.705L217.236 120.337L212.664 123.766L211.521 127.956V132.147H207.712V131.004L207.334 127.956L208.854 123.766L212.664 119.575L216.474 118.813L219.144 118.419L218.001 114.99L209.616 115.003L207.334 117.289C207.334 117.289 205.657 119.968 203.903 120.337C203.176 120.49 202 120.337 202 120.337C202 120.337 202.614 119.476 203.005 118.942C203.196 118.463 204.972 115.363 206.569 113.86C208.469 112.811 209.557 112.54 211.521 112.717C213.009 112.717 215.334 113.085 216.858 113.466C218.382 113.847 217.236 112.717 217.236 112.717L216.474 111.574C215.284 110.384 215.331 109.669 213.426 108.526C211.521 107.383 209.233 108.003 206.569 108.526L208.854 106.621C212.121 105.505 214.032 106.056 217.292 106.996L217.314 107.002C219.459 108.276 221.021 110.186 221.402 111.176L221.415 110.799L222.96 111.574C223.153 110.825 228.339 107.365 230.571 106.621L237.428 108.526C230.069 107.61 227.708 108.369 225.24 112.717L225.141 115.08L227.142 113.86L229.809 112.717L237.428 113.86L242 118.813C242 118.813 237.806 121.861 238.571 120.337C239.336 118.813 235.904 116.146 232.856 115.003C229.809 113.86 226.002 116.133 226.002 116.133V117.657L229.809 119.194L232.856 120.705L235.098 126.673L231.713 132.147V129.48V126.433L230.571 123.766L225.24 120.705L226.002 124.134L224.663 126.433L224.856 145.863Z" fill="#F1B20D" fill-opacity="0.15"/>
<path d="M219.856 475.863H215.284L215.911 456.433H215.284L213.763 454.515L214.906 450.705L212.236 450.337L207.664 453.766L206.521 457.956V462.147H202.712V461.004L202.334 457.956L203.854 453.766L207.664 449.575L211.474 448.813L214.144 448.419L213.001 444.99L204.616 445.003L202.334 447.289C202.334 447.289 200.657 449.968 198.903 450.337C198.176 450.49 197 450.337 197 450.337C197 450.337 197.614 449.476 198.005 448.942C198.196 448.463 199.972 445.363 201.569 443.86C203.469 442.811 204.557 442.54 206.521 442.717C208.009 442.717 210.334 443.085 211.858 443.466C213.382 443.847 212.236 442.717 212.236 442.717L211.474 441.574C210.284 440.384 210.331 439.669 208.426 438.526C206.521 437.383 204.233 438.003 201.569 438.526L203.854 436.621C207.121 435.505 209.032 436.056 212.292 436.996L212.314 437.002C214.459 438.276 216.021 440.186 216.402 441.176L216.415 440.799L217.96 441.574C218.153 440.825 223.339 437.365 225.571 436.621L232.428 438.526C225.069 437.61 222.708 438.369 220.24 442.717L220.141 445.08L222.142 443.86L224.809 442.717L232.428 443.86L237 448.813C237 448.813 232.806 451.861 233.571 450.337C234.336 448.813 230.904 446.146 227.856 445.003C224.809 443.86 221.002 446.133 221.002 446.133V447.657L224.809 449.194L227.856 450.705L230.098 456.673L226.713 462.147V459.48V456.433L225.571 453.766L220.24 450.705L221.002 454.134L219.663 456.433L219.856 475.863Z" fill="#F1B20D" fill-opacity="0.15"/>
<path d="M309.856 168.863H305.284L305.911 149.433H305.284L303.763 147.515L304.906 143.705L302.236 143.337L297.664 146.766L296.521 150.956V155.147H292.712V154.004L292.334 150.956L293.854 146.766L297.664 142.575L301.474 141.813L304.144 141.419L303.001 137.99L294.616 138.003L292.334 140.289C292.334 140.289 290.657 142.968 288.903 143.337C288.176 143.49 287 143.337 287 143.337C287 143.337 287.614 142.476 288.005 141.942C288.196 141.463 289.972 138.363 291.569 136.86C293.469 135.811 294.557 135.54 296.521 135.717C298.009 135.717 300.334 136.085 301.858 136.466C303.382 136.847 302.236 135.717 302.236 135.717L301.474 134.574C300.284 133.384 300.331 132.669 298.426 131.526C296.521 130.383 294.233 131.003 291.569 131.526L293.854 129.621C297.121 128.505 299.032 129.056 302.292 129.996L302.314 130.002C304.459 131.276 306.021 133.186 306.402 134.176L306.415 133.799L307.96 134.574C308.153 133.825 313.339 130.365 315.571 129.621L322.428 131.526C315.069 130.61 312.708 131.369 310.24 135.717L310.141 138.08L312.142 136.86L314.809 135.717L322.428 136.86L327 141.813C327 141.813 322.806 144.861 323.571 143.337C324.336 141.813 320.904 139.146 317.856 138.003C314.809 136.86 311.002 139.133 311.002 139.133V140.657L314.809 142.194L317.856 143.705L320.098 149.673L316.713 155.147V152.48V149.433L315.571 146.766L310.24 143.705L311.002 147.134L309.663 149.433L309.856 168.863Z" fill="#F1B20D" fill-opacity="0.15"/>
<path d="M305.856 441.863H301.284L301.911 422.433H301.284L299.763 420.515L300.906 416.705L298.236 416.337L293.664 419.766L292.521 423.956V428.147H288.712V427.004L288.334 423.956L289.854 419.766L293.664 415.575L297.474 414.813L300.144 414.419L299.001 410.99L290.616 411.003L288.334 413.289C288.334 413.289 286.657 415.968 284.903 416.337C284.176 416.49 283 416.337 283 416.337C283 416.337 283.614 415.476 284.005 414.942C284.196 414.463 285.972 411.363 287.569 409.86C289.469 408.811 290.557 408.54 292.521 408.717C294.009 408.717 296.334 409.085 297.858 409.466C299.382 409.847 298.236 408.717 298.236 408.717L297.474 407.574C296.284 406.384 296.331 405.669 294.426 404.526C292.521 403.383 290.233 404.003 287.569 404.526L289.854 402.621C293.121 401.505 295.032 402.056 298.292 402.996L298.314 403.002C300.459 404.276 302.021 406.186 302.402 407.176L302.415 406.799L303.96 407.574C304.153 406.825 309.339 403.365 311.571 402.621L318.428 404.526C311.069 403.61 308.708 404.369 306.24 408.717L306.141 411.08L308.142 409.86L310.809 408.717L318.428 409.86L323 414.813C323 414.813 318.806 417.861 319.571 416.337C320.336 414.813 316.904 412.146 313.856 411.003C310.809 409.86 307.002 412.133 307.002 412.133V413.657L310.809 415.194L313.856 416.705L316.098 422.673L312.713 428.147V425.48V422.433L311.571 419.766L306.24 416.705L307.002 420.134L305.663 422.433L305.856 441.863Z" fill="#F1B20D" fill-opacity="0.15"/>
<path d="M49.8558 174.863H45.284L45.9105 155.433H45.284L43.7633 153.515L44.9062 149.705L42.2361 149.337L37.6643 152.766L36.5213 156.956V161.147H32.7115V160.004L32.3338 156.956L33.8545 152.766L37.6643 148.575L41.4741 147.813L44.1442 147.419L43.0013 143.99L34.6164 144.003L32.3338 146.289C32.3338 146.289 30.657 148.968 28.9033 149.337C28.176 149.49 27 149.337 27 149.337C27 149.337 27.6142 148.476 28.0051 147.942C28.1961 147.463 29.9717 144.363 31.5686 142.86C33.4687 141.811 34.5567 141.54 36.5213 141.717C38.0092 141.717 40.3344 142.085 41.8583 142.466C43.3823 142.847 42.2361 141.717 42.2361 141.717L41.4741 140.574C40.2839 139.384 40.3312 138.669 38.4263 137.526C36.5213 136.383 34.2334 137.003 31.5686 137.526L33.8545 135.621C37.1206 134.505 39.0325 135.056 42.292 135.996L42.314 136.002C44.4594 137.276 46.021 139.186 46.4025 140.176L46.4146 139.799L47.9604 140.574C48.153 139.825 53.3388 136.365 55.5705 135.621L62.4282 137.526C55.0689 136.61 52.7085 137.369 50.2399 141.717L50.1405 144.08L52.1417 142.86L54.8085 141.717L62.4282 142.86L67 147.813C67 147.813 62.806 150.861 63.5712 149.337C64.3363 147.813 60.9043 145.146 57.8564 144.003C54.8085 142.86 51.0019 145.133 51.0019 145.133V146.657L54.8085 148.194L57.8564 149.705L60.0977 155.673L56.7135 161.147V158.48V155.433L55.5705 152.766L50.2399 149.705L51.0019 153.134L49.6632 155.433L49.8558 174.863Z" fill="#F1B20D" fill-opacity="0.15"/>
<path d="M47.8558 442.863H43.284L43.9105 423.433H43.284L41.7633 421.515L42.9062 417.705L40.2361 417.337L35.6643 420.766L34.5213 424.956V429.147H30.7115V428.004L30.3338 424.956L31.8545 420.766L35.6643 416.575L39.4741 415.813L42.1442 415.419L41.0013 411.99L32.6164 412.003L30.3338 414.289C30.3338 414.289 28.657 416.968 26.9033 417.337C26.176 417.49 25 417.337 25 417.337C25 417.337 25.6142 416.476 26.0051 415.942C26.1961 415.463 27.9717 412.363 29.5686 410.86C31.4687 409.811 32.5567 409.54 34.5213 409.717C36.0092 409.717 38.3344 410.085 39.8583 410.466C41.3823 410.847 40.2361 409.717 40.2361 409.717L39.4741 408.574C38.2839 407.384 38.3312 406.669 36.4263 405.526C34.5213 404.383 32.2334 405.003 29.5686 405.526L31.8545 403.621C35.1206 402.505 37.0325 403.056 40.292 403.996L40.314 404.002C42.4594 405.276 44.021 407.186 44.4025 408.176L44.4146 407.799L45.9604 408.574C46.153 407.825 51.3388 404.365 53.5705 403.621L60.4282 405.526C53.0689 404.61 50.7085 405.369 48.2399 409.717L48.1405 412.08L50.1417 410.86L52.8085 409.717L60.4282 410.86L65 415.813C65 415.813 60.806 418.861 61.5712 417.337C62.3363 415.813 58.9043 413.146 55.8564 412.003C52.8085 410.86 49.0019 413.133 49.0019 413.133V414.657L52.8085 416.194L55.8564 417.705L58.0977 423.673L54.7135 429.147V426.48V423.433L53.5705 420.766L48.2399 417.705L49.0019 421.134L47.6632 423.433L47.8558 442.863Z" fill="#F1B20D" fill-opacity="0.15"/>
</svg>
